<?xml version="1.0" encoding="utf-8"?>
<!-- Generator: Adobe Illustrator 14.0.0, SVG Export Plug-In . SVG Version: 6.00 Build 43363)  -->
<!DOCTYPE svg PUBLIC "-//W3C//DTD SVG 1.1//EN" "http://www.w3.org/Graphics/SVG/1.1/DTD/svg11.dtd">
<svg version="1.1" id="Capa_1" xmlns="http://www.w3.org/2000/svg" xmlns:xlink="http://www.w3.org/1999/xlink" x="0px" y="0px"
	 width="400px" height="71.67px" viewBox="0 0 400 71.67" enable-background="new 0 0 400 71.67" xml:space="preserve">
<g>
	<g>
		<g>
			<polygon fill="#666666" points="21.532,21.789 5.333,6.565 7.746,54.013 17.855,51.658 16.649,36.667 20.211,40.457 
				23.14,34.884 24.346,52.633 49.104,51.487 32.216,9.265 			"/>
			<path fill="#666666" d="M62.89,7.714c-6.166,0.537-10.551,4.653-13.154,12.351c-1.111,3.216-1.819,7.008-2.125,11.375
				c-0.115,0.957-0.171,2.047-0.171,3.273c0,4.864,0.804,8.923,2.412,12.178c2.45,4.94,6.509,7.41,12.177,7.41
				c0.996,0,2.048-0.076,3.16-0.23c1.494-0.19,3.714-1.128,6.663-2.813c1.226-0.689,2.547-1.514,3.964-2.471
				c-2.413-2.566-4.078-4.347-4.997-5.343c-2.068,2.643-3.754,3.965-5.056,3.965c-1.723,0-2.662-2.261-2.814-6.778l15.911-5.859
				c0.115-5.552-0.325-10.244-1.321-14.074C75.201,11.391,70.319,7.064,62.89,7.714z M62.373,35
				c-0.729-2.299-1.092-4.233-1.092-5.802c0-1.915,0.594-2.873,1.781-2.873c0.23,0,0.478,0.04,0.747,0.115
				c2.029,0.537,3.426,1.8,4.192,3.791c0.307,0.806,0.479,1.742,0.518,2.815L62.373,35z"/>
			<path fill="#666666" d="M202.242,5.015c-3.025,0.689-5.093,1.187-6.203,1.493l0.968,3.162c-1.148-1.801-3.331-2.702-6.545-2.702
				c-0.651,0-1.302,0.039-1.953,0.115c-3.56,0.421-6.391,2.527-8.498,6.318c-1.025,1.795-1.788,3.849-2.317,6.132
				c-1.025-7.501-5.283-11.657-12.788-12.45c-0.537-0.077-1.169-0.115-1.896-0.115c-3.447,0-6.587,0.824-9.42,2.47
				c-2.58,1.506-4.651,3.639-6.237,6.37c-0.162-0.323-0.307-0.663-0.484-0.97c-3.485-6.089-9.287-9.133-17.405-9.133
				c-8.157,0-13.518,2.298-16.083,6.893c-0.363,0.635-0.632,1.333-0.859,2.059c-3.496-5.965-9.258-8.952-17.293-8.952
				c-8.157,0-13.519,2.298-16.084,6.893c-1.073,1.876-1.551,4.155-1.437,6.835c1.071,8.119,4.328,13.518,9.766,16.2
				c3.6,1.799,5.4,3.254,5.4,4.365c0,0.307-0.173,0.584-0.517,0.833s-0.67,0.373-0.977,0.373c-0.919,0-1.704-0.938-2.355-2.816
				l-6.663,1.323c0.077,2.375,0.478,4.423,1.206,6.145c1.761,4.062,5.055,6.089,9.881,6.089c4.824,0,8.08-1.99,9.765-5.973
				c0.728-1.646,1.092-3.638,1.092-5.974c0-2.488-0.92-4.749-2.758-6.778c-1.493-1.608-3.255-2.795-5.285-3.562
				c-1.608-0.574-2.413-1.704-2.413-3.39c0-1.455,0.708-2.181,2.126-2.181c0.306,0,0.631,0.057,0.977,0.171
				c2.182,0.574,3.274,1.858,3.274,3.849c0,0.345-0.038,0.632-0.115,0.862l12.968-4.226c1.607,5.211,4.481,8.844,8.63,10.89
				c3.6,1.799,5.4,3.254,5.4,4.365c0,0.307-0.172,0.584-0.517,0.833c-0.345,0.249-0.67,0.373-0.977,0.373
				c-0.919,0-1.705-0.938-2.356-2.816l-6.663,1.323c0.077,2.375,0.479,4.423,1.206,6.145c1.761,4.062,5.056,6.089,9.88,6.089
				c4.825,0,8.079-1.99,9.765-5.973c0.727-1.646,1.091-3.638,1.091-5.974c0-2.488-0.919-4.749-2.757-6.778
				c-1.493-1.608-3.255-2.795-5.285-3.562c-1.608-0.574-2.412-1.704-2.412-3.39c0-1.455,0.708-2.181,2.125-2.181
				c0.306,0,0.631,0.057,0.976,0.171c2.183,0.574,3.274,1.858,3.274,3.849c0,0.345-0.038,0.632-0.115,0.862l15.337-4.998
				c-0.02-0.167-0.055-0.317-0.077-0.481l10.704,2.894c0.498-5.36,1.742-8.042,3.734-8.042c0.383,0,0.823,0.134,1.321,0.403
				c1.875,1.072,2.814,2.604,2.814,4.595c0,0.881-0.171,1.705-0.516,2.47c-4.634,0.69-8.636,1.628-12.006,2.815
				c-8.081,2.834-12.235,6.662-12.465,11.489c-0.383,6.51,3.102,9.764,10.454,9.764c3.599,0,7.525-0.707,11.775-2.124l-1.148,2.986
				l7.583,3.389l5.099-22.8c0.364,5.409,1.591,9.911,3.689,13.497c2.374,4.059,5.438,6.088,9.19,6.088
				c0.384,0,0.785-0.019,1.208-0.058c3.407-0.422,6.146-1.473,8.214-3.158c0.843-0.728,1.53-1.534,2.067-2.414
				c0.918,2.414,1.379,4.595,1.379,6.549c0,3.331-1.514,5.074-4.538,5.228c-1.916,0.075-3.887-1.589-5.916-4.997l-9.708,5.57
				c3.523,5.322,7.889,7.984,13.097,7.984c2.221,0,4.462-0.534,6.72-1.608c6.664-3.14,9.995-9.21,9.995-18.208
				c0-4.48-0.766-9.019-2.299-13.614L202.242,5.015z M165.309,43.501c-1.378,0.536-2.585,0.805-3.619,0.805
				c-1.608,0-2.413-0.728-2.413-2.183c0-0.192,0.02-0.421,0.058-0.69c0.307-2.26,2.22-3.389,5.745-3.389
				c0.651,0,1.244,0.039,1.781,0.113L165.309,43.501z M197.016,43.386c-1.148,0.689-2.297,1.034-3.446,1.034
				c-0.957,0-1.772-0.259-2.441-0.775c-0.67-0.519-1.006-1.234-1.006-2.154c0-1.8,1.054-3.313,3.16-4.538
				c1.15-0.65,2.298-0.978,3.448-0.978c0.994,0,1.828,0.25,2.499,0.749c0.669,0.496,1.005,1.205,1.005,2.124
				C200.233,40.648,199.16,42.161,197.016,43.386z"/>
			<path fill="#666666" d="M227.346,7.714c-6.166,0.537-10.551,4.653-13.153,12.351c-1.112,3.216-1.819,7.008-2.126,11.375
				c-0.115,0.957-0.172,2.047-0.172,3.273c0,4.864,0.804,8.923,2.412,12.178c2.45,4.94,6.51,7.41,12.176,7.41
				c0.997,0,2.051-0.076,3.162-0.23c1.491-0.19,3.713-1.128,6.662-2.813c1.225-0.689,2.546-1.514,3.965-2.471
				c-2.414-2.566-4.079-4.347-4.999-5.343c-2.067,2.643-3.753,3.965-5.054,3.965c-1.725,0-2.662-2.261-2.814-6.778l15.911-5.859
				c0.114-5.552-0.326-10.244-1.322-14.074C239.657,11.391,234.775,7.064,227.346,7.714z M226.829,35
				c-0.728-2.299-1.093-4.233-1.093-5.802c0-1.915,0.595-2.873,1.781-2.873c0.229,0,0.478,0.04,0.747,0.115
				c2.028,0.537,3.428,1.8,4.194,3.791c0.305,0.806,0.478,1.742,0.516,2.815L226.829,35z"/>
			<path fill="#666666" d="M366.697,20.409l-10.053-7.64l-8.844,14.017l-9.767-18.382l-16.237,14.375
				c-0.555-2.524-1.359-4.906-2.429-7.137c-3.371-7.124-8.771-10.685-16.199-10.685c-3.602,0.957-6.684,2.317-9.25,4.078
				c-3.106,2.109-5.435,4.637-6.985,7.582c-0.343-5.777-3.203-9.76-8.579-11.947c-2.413-0.957-5.284-1.455-8.616-1.494
				l-11.316,0.403l1.263,46.758c2.834,0.46,5.688,0.688,8.56,0.688c9.688,0,14.532-2.737,14.532-8.214
				c0-3.448-1.092-6.184-3.273-8.216c1.455-0.496,2.699-1.357,3.733-2.583c0.559-0.679,1.045-1.457,1.479-2.308
				c0.468,7.066,2.616,12.719,6.447,16.954c3.829,4.252,8.54,6.377,14.131,6.377c3.14,0,6.147-1.359,9.02-4.079
				c2.45-2.298,4.48-5.246,6.088-8.845c1.532-3.332,2.298-6.224,2.298-8.673c0-1.841-0.121-3.613-0.338-5.332l14.927,10.96
				l-8.214,8.214l9.708,7.063l6.893-10.28l7.984,8.042l4.022-8.674l-7.238-4.652L366.697,20.409z M270.656,43.501
				c-1.227,0-2.585-0.287-4.079-0.861v-6.148c0.855-0.189,1.73-0.286,2.625-0.286c3.383,0,5.054,1.341,5.016,4.022
				C274.142,42.411,272.953,43.501,270.656,43.501z M267.152,33.621l-0.346-7.41c1.57-0.536,3.007-0.804,4.309-0.804
				c2.451,0,3.696,1.015,3.734,3.044C274.888,31.553,272.322,33.276,267.152,33.621z M311.268,42.007
				c-1.111,1.34-2.45,2.011-4.021,2.011c-0.958,0-1.779-0.287-2.471-0.861c-0.919-0.766-1.379-1.782-1.379-3.044
				c0-1.301,0.46-2.488,1.379-3.563c1.149-1.379,2.509-2.067,4.079-2.067c0.957,0,1.781,0.287,2.47,0.861
				c0.881,0.768,1.321,1.801,1.321,3.102C312.646,39.749,312.188,40.935,311.268,42.007z"/>
		</g>
	</g>
</g>
<g>
	<g>
		<g>
			<polygon fill="#FFFFFF" points="25.123,25.378 8.924,10.155 11.336,57.603 21.446,55.249 20.239,40.254 23.801,44.046 
				26.73,38.475 27.937,56.224 52.695,55.077 35.806,12.855 			"/>
			<path fill="#FFFFFF" d="M66.48,11.305c-6.166,0.537-10.551,4.653-13.155,12.35c-1.11,3.217-1.818,7.008-2.125,11.374
				c-0.115,0.957-0.172,2.048-0.172,3.274c0,4.863,0.804,8.922,2.412,12.177c2.45,4.939,6.51,7.41,12.178,7.41
				c0.996,0,2.048-0.077,3.16-0.229c1.494-0.192,3.714-1.129,6.663-2.814c1.225-0.69,2.546-1.514,3.964-2.469
				c-2.413-2.566-4.079-4.348-4.997-5.344c-2.068,2.643-3.754,3.964-5.056,3.964c-1.723,0-2.662-2.26-2.815-6.777l15.912-5.859
				c0.115-5.553-0.325-10.244-1.321-14.074C78.792,14.981,73.909,10.654,66.48,11.305z M65.963,38.59
				c-0.728-2.299-1.091-4.231-1.091-5.802c0-1.915,0.593-2.873,1.781-2.873c0.229,0,0.478,0.039,0.747,0.114
				c2.029,0.538,3.427,1.8,4.193,3.792c0.307,0.805,0.479,1.743,0.517,2.814L65.963,38.59z"/>
			<path fill="#FFFFFF" d="M205.833,8.604c-3.026,0.69-5.094,1.188-6.205,1.494l0.97,3.163c-1.149-1.802-3.332-2.703-6.546-2.703
				c-0.651,0-1.302,0.038-1.953,0.115c-3.56,0.421-6.391,2.527-8.498,6.318c-1.025,1.794-1.788,3.847-2.317,6.13
				c-1.026-7.5-5.284-11.655-12.788-12.448c-0.537-0.077-1.168-0.115-1.896-0.115c-3.447,0-6.587,0.823-9.42,2.47
				c-2.58,1.506-4.651,3.639-6.237,6.37c-0.162-0.323-0.307-0.663-0.484-0.97c-3.485-6.089-9.287-9.133-17.405-9.133
				c-8.156,0-13.518,2.297-16.084,6.893c-0.362,0.634-0.632,1.332-0.858,2.058c-3.496-5.964-9.258-8.951-17.293-8.951
				c-8.156,0-13.519,2.297-16.083,6.893c-1.073,1.877-1.551,4.156-1.437,6.835c1.072,8.12,4.328,13.519,9.765,16.2
				c3.6,1.8,5.4,3.255,5.4,4.365c0,0.308-0.172,0.583-0.517,0.833c-0.345,0.249-0.67,0.373-0.977,0.373
				c-0.919,0-1.705-0.938-2.355-2.815l-6.664,1.321c0.077,2.377,0.479,4.424,1.206,6.147c1.762,4.059,5.056,6.088,9.881,6.088
				c4.824,0,8.08-1.99,9.765-5.973c0.727-1.648,1.092-3.639,1.092-5.975c0-2.488-0.92-4.749-2.757-6.779
				c-1.495-1.607-3.256-2.794-5.285-3.561c-1.61-0.574-2.413-1.703-2.413-3.389c0-1.455,0.708-2.183,2.125-2.183
				c0.306,0,0.632,0.057,0.977,0.172c2.183,0.575,3.274,1.858,3.274,3.849c0,0.344-0.039,0.631-0.115,0.861l12.967-4.225
				c1.607,5.211,4.482,8.844,8.63,10.889c3.6,1.8,5.4,3.255,5.4,4.365c0,0.308-0.173,0.583-0.517,0.833
				c-0.345,0.249-0.671,0.373-0.977,0.373c-0.918,0-1.704-0.938-2.355-2.815l-6.663,1.321c0.076,2.377,0.479,4.424,1.206,6.147
				c1.761,4.059,5.055,6.088,9.88,6.088c4.824,0,8.08-1.99,9.765-5.973c0.728-1.648,1.091-3.639,1.091-5.975
				c0-2.488-0.92-4.749-2.757-6.779c-1.494-1.607-3.255-2.794-5.286-3.561c-1.608-0.574-2.413-1.703-2.413-3.389
				c0-1.455,0.708-2.183,2.126-2.183c0.306,0,0.631,0.057,0.976,0.172c2.183,0.575,3.275,1.858,3.275,3.849
				c0,0.344-0.039,0.631-0.115,0.861l15.337-4.997c-0.02-0.167-0.055-0.317-0.077-0.481l10.704,2.894
				c0.498-5.361,1.743-8.042,3.734-8.042c0.382,0,0.823,0.135,1.321,0.402c1.875,1.073,2.815,2.604,2.815,4.596
				c0,0.881-0.173,1.704-0.518,2.47c-4.634,0.689-8.636,1.628-12.006,2.815c-8.08,2.834-12.235,6.664-12.465,11.489
				c-0.382,6.51,3.102,9.765,10.454,9.765c3.6,0,7.525-0.709,11.776-2.127l-1.149,2.988l7.582,3.39l5.1-22.806
				c0.363,5.411,1.591,9.913,3.689,13.499c2.374,4.063,5.438,6.09,9.191,6.09c0.383,0,0.785-0.02,1.208-0.059
				c3.408-0.421,6.146-1.474,8.214-3.158c0.842-0.728,1.529-1.531,2.067-2.412c0.918,2.412,1.378,4.595,1.378,6.547
				c0,3.332-1.512,5.074-4.538,5.23c-1.916,0.073-3.887-1.592-5.916-5l-9.708,5.571c3.522,5.322,7.889,7.984,13.098,7.984
				c2.22,0,4.461-0.536,6.72-1.607c6.663-3.139,9.995-9.209,9.995-18.208c0-4.481-0.768-9.021-2.299-13.615L205.833,8.604z
				 M168.899,47.092c-1.379,0.535-2.586,0.803-3.619,0.803c-1.609,0-2.413-0.726-2.413-2.182c0-0.192,0.019-0.421,0.057-0.69
				c0.307-2.26,2.221-3.389,5.744-3.389c0.652,0,1.245,0.039,1.782,0.115L168.899,47.092z M200.606,46.976
				c-1.148,0.689-2.298,1.034-3.447,1.034c-0.957,0-1.771-0.258-2.44-0.775c-0.67-0.517-1.005-1.234-1.005-2.154
				c0-1.8,1.053-3.313,3.158-4.538c1.15-0.65,2.299-0.977,3.449-0.977c0.994,0,1.827,0.251,2.499,0.747
				c0.669,0.499,1.003,1.207,1.003,2.126C203.822,44.239,202.75,45.75,200.606,46.976z"/>
			<path fill="#FFFFFF" d="M230.936,11.305c-6.166,0.537-10.55,4.653-13.153,12.35c-1.111,3.217-1.82,7.008-2.127,11.374
				c-0.114,0.957-0.171,2.048-0.171,3.274c0,4.863,0.804,8.922,2.412,12.177c2.449,4.939,6.51,7.41,12.178,7.41
				c0.996,0,2.048-0.077,3.16-0.229c1.493-0.192,3.713-1.129,6.662-2.814c1.225-0.69,2.547-1.514,3.964-2.469
				c-2.412-2.566-4.078-4.348-4.998-5.344c-2.067,2.643-3.753,3.964-5.055,3.964c-1.724,0-2.663-2.26-2.813-6.777l15.911-5.859
				c0.115-5.553-0.326-10.244-1.321-14.074C243.248,14.981,238.364,10.654,230.936,11.305z M230.418,38.59
				c-0.729-2.299-1.091-4.231-1.091-5.802c0-1.915,0.595-2.873,1.782-2.873c0.229,0,0.478,0.039,0.747,0.114
				c2.027,0.538,3.425,1.8,4.191,3.792c0.308,0.805,0.479,1.743,0.518,2.814L230.418,38.59z"/>
			<path fill="#FFFFFF" d="M370.289,23.999l-10.053-7.639l-8.847,14.015l-9.765-18.381L325.387,26.37
				c-0.555-2.525-1.36-4.907-2.43-7.139c-3.37-7.123-8.769-10.684-16.197-10.684c-3.601,0.957-6.685,2.318-9.25,4.079
				c-3.106,2.11-5.435,4.637-6.985,7.583c-0.343-5.778-3.202-9.762-8.58-11.948c-2.413-0.957-5.284-1.456-8.617-1.494l-11.316,0.402
				l1.265,46.757c2.833,0.462,5.687,0.691,8.559,0.691c9.688,0,14.532-2.738,14.532-8.213c0-3.449-1.09-6.186-3.273-8.216
				c1.455-0.498,2.701-1.359,3.732-2.585c0.56-0.68,1.047-1.459,1.48-2.312c0.468,7.069,2.615,12.723,6.446,16.958
				c3.83,4.252,8.54,6.376,14.131,6.376c3.141,0,6.147-1.357,9.019-4.078c2.451-2.298,4.48-5.244,6.09-8.845
				c1.531-3.333,2.298-6.223,2.298-8.674c0-1.841-0.121-3.613-0.338-5.331l14.927,10.959l-8.215,8.216l9.709,7.064l6.893-10.282
				l7.983,8.042l4.021-8.674l-7.238-4.653L370.289,23.999z M274.247,47.092c-1.226,0-2.586-0.287-4.08-0.862v-6.147
				c0.856-0.19,1.73-0.287,2.626-0.287c3.381,0,5.054,1.341,5.016,4.021C277.731,46,276.543,47.092,274.247,47.092z M270.742,37.211
				l-0.344-7.411c1.569-0.535,3.005-0.804,4.309-0.804c2.448,0,3.693,1.015,3.731,3.044
				C278.478,35.143,275.912,36.866,270.742,37.211z M314.857,45.598c-1.111,1.34-2.451,2.011-4.02,2.011
				c-0.959,0-1.782-0.288-2.472-0.863c-0.917-0.765-1.377-1.78-1.377-3.043c0-1.303,0.46-2.489,1.377-3.562
				c1.149-1.379,2.509-2.068,4.079-2.068c0.958,0,1.781,0.288,2.47,0.863c0.88,0.767,1.321,1.798,1.321,3.101
				C316.236,43.337,315.777,44.525,314.857,45.598z"/>
		</g>
	</g>
</g>
</svg>
